<svg width="120" height="22" viewBox="0 0 120 22" fill="none" xmlns="http://www.w3.org/2000/svg">
<path fill-rule="evenodd" clip-rule="evenodd" d="M20.5377 8.5763C20.8744 3.52474 17.9734 0.565247 11.8865 0.565247C6.3436 0.565247 1.29277 4.51975 0.204906 10.847C-0.882963 17.2252 2.40655 21.2052 8.98556 21.2052C14.2436 21.2052 18.4397 18.1436 19.8902 13.0921H13.622C13.0521 14.98 11.8088 16.4088 9.71081 16.4088C6.3954 16.4088 6.21409 13.832 6.68032 11.0766C7.32786 7.30066 9.03737 5.36167 11.3426 5.36167C13.3888 5.36167 14.4767 6.53527 14.3213 8.5763H20.5377Z" fill="#465055"/>
<path fill-rule="evenodd" clip-rule="evenodd" d="M31.9603 5.59129C34.8613 5.51475 35.4571 8.34668 35.0167 11C34.4728 14.2402 32.9446 16.6384 30.1213 16.6384C26.9872 16.6384 26.7541 13.5003 27.1944 11C27.6089 8.52527 29.0075 5.59129 31.9603 5.59129ZM32.841 0.794861C26.6505 0.794861 21.7292 4.80039 20.6672 10.949C19.5275 17.6334 23.0502 21.4348 29.2925 21.4348C35.1721 21.4348 40.3784 17.6844 41.5439 11C42.4246 5.82091 39.938 0.794861 32.841 0.794861Z" fill="#465055"/>
<path fill-rule="evenodd" clip-rule="evenodd" d="M50.0916 1.0755H43.9788L40.6116 20.6949H46.8539L47.9158 14.4698L48.4339 10.005L53.7178 20.6949H59.8306L63.1978 1.0755H56.9296L55.8676 7.32616L55.3496 11.7909L50.0916 1.0755Z" fill="#465055"/>
<path fill-rule="evenodd" clip-rule="evenodd" d="M60.7629 13.7809H67.8859L68.6629 9.21412H61.54L62.1616 5.64231H71.1236L71.9006 1.0755H63.0423L60.7629 13.7809Z" fill="#465055"/>
<path fill-rule="evenodd" clip-rule="evenodd" d="M76.1227 20.848L79.5158 1.22858H72.9886L69.6213 20.848H76.1227Z" fill="#465055"/>
<path fill-rule="evenodd" clip-rule="evenodd" d="M90.6016 14.1636H86.4832L89.7209 7.14757L90.6016 14.1636ZM83.3232 20.848L84.5147 18.2712H91.016L91.3527 20.848H97.854L94.0983 1.22858H87.4675L76.9773 20.8225H83.3232V20.848Z" fill="#465055"/>
<path fill-rule="evenodd" clip-rule="evenodd" d="M106.065 4.41769C107.541 3.26961 109.199 2.2746 110.831 1.56024H100.341V14.0871C100.496 10.8214 102.542 7.14757 106.065 4.41769Z" fill="#004996"/>
<path fill-rule="evenodd" clip-rule="evenodd" d="M101.584 18.4243C100.807 17.3783 100.418 16.1536 100.341 14.827V20.899H106.013C104.174 20.6694 102.62 19.853 101.584 18.4243Z" fill="#004996"/>
<path fill-rule="evenodd" clip-rule="evenodd" d="M110.883 1.53473L114.638 6.22911C113.058 6.35667 111.323 6.76488 109.821 7.93847C107.852 9.46925 107.049 11.7909 108.085 13.1941C109.121 14.5973 111.634 14.3677 113.602 12.837C115.105 11.6634 115.985 10.2857 116.503 8.72937L119.845 13.6534C119.042 14.827 116.71 16.868 115.545 17.7865C113.24 19.5724 110.727 20.6184 108.422 20.899H120V1.53473H110.883Z" fill="#004996"/>
</svg>
